<svg xmlns="http://www.w3.org/2000/svg" viewBox="0 0 200 200" role="img" aria-label="Oh So Coco logo">
  <defs>
    <linearGradient id="ring" x1="0" y1="0" x2="1" y2="1">
      <stop offset="0" stop-color="#e85d8a"/>
      <stop offset="0.5" stop-color="#d9a441"/>
      <stop offset="1" stop-color="#5c3a21"/>
    </linearGradient>
  </defs>
  <circle cx="100" cy="100" r="96" fill="url(#ring)"/>
  <circle cx="100" cy="100" r="88" fill="#fffcf7"/>
  <circle cx="100" cy="100" r="74" fill="#fbf3e6"/>
  <path d="M132 78c-6-14-20-22-34-22-24 0-42 19-42 44s18 44 42 44c15 0 28-8 34-21" fill="none" stroke="#5c3a21" stroke-width="22" stroke-linecap="round"/>
  <path d="M112 130c0 10 3 16 3 24 0 5-3 8-6 8s-6-3-6-8c0-6 2-10 2-16" fill="#5c3a21"/>
  <path d="M138 62c-4-5-11-5-15 0-2 2-2 5-1 7-4-1-8 1-9 5-2 6 4 12 13 18 9-6 15-12 13-18-1-4-5-6-9-5 1-2 1-5-1-7z" fill="#5c3a21"/>
  <path d="M126 75c-3 0-4 2-4 4 0 3 3 6 6 8 3-2 6-5 6-8 0-2-1-4-4-4-1 0-2 1-2 1s-1-1-2-1z" fill="#e85d8a"/>
</svg>
